<svg width="141" height="52" viewBox="0 0 141 52" fill="none" xmlns="http://www.w3.org/2000/svg">
<path fill-rule="evenodd" clip-rule="evenodd" d="M42.8745 7.69285C46.1259 7.81586 49.4641 8.13081 52.8455 8.69109C79.4072 13.0923 98.5694 30.9651 98.5694 30.9651C98.5694 30.9651 74.6666 41.7022 48.1049 37.301C44.7235 36.7407 41.4621 35.9621 38.3448 35.0299L42.8745 7.69285ZM30.6811 32.3424C13.5619 25.4556 2.38092 15.027 2.38092 15.027C2.38092 15.027 16.328 8.762 34.7535 7.76488L30.6811 32.3424Z" fill="#60D9FF"/>
<path fill-rule="evenodd" clip-rule="evenodd" d="M135.233 50.384L123.726 35.1341L140.215 24.3027L98.5693 30.966L135.233 50.384Z" fill="black"/>
<path fill-rule="evenodd" clip-rule="evenodd" d="M48.1049 37.3013L52.8455 8.69141C49.4641 8.13113 46.1259 7.81618 42.8745 7.69317L38.3449 35.0302C41.4621 35.9624 44.7235 36.741 48.1049 37.3013Z" fill="black"/>
<path fill-rule="evenodd" clip-rule="evenodd" d="M30.681 32.3431L34.7534 7.76562C31.1138 7.96259 27.6489 8.3651 24.4317 8.88426L21.2717 27.9551C24.1495 29.4842 27.2994 30.9827 30.681 32.3431Z" fill="black"/>
</svg>
