<svg width="135" height="95" viewBox="0 0 135 95" fill="none" xmlns="http://www.w3.org/2000/svg">
<path fill-rule="evenodd" clip-rule="evenodd" d="M48.2978 20.7181C51.3008 21.9704 54.3181 23.4329 57.29 25.1403C80.6352 38.5528 92.3369 61.9985 92.3369 61.9985C92.3369 61.9985 66.1885 63.6982 42.8433 50.2858C39.8714 48.5783 37.0882 46.7083 34.4938 44.7448L48.2978 20.7181ZM28.2539 39.5468C14.6241 27.1079 7.79631 13.4276 7.79631 13.4276C7.79631 13.4276 23.0537 12.4358 40.6644 17.9455L28.2539 39.5468Z" fill="#98F92A"/>
<path fill-rule="evenodd" clip-rule="evenodd" d="M119.895 93.0132L114.448 74.7009L133.681 70.3203L92.3369 61.9988L119.895 93.0132Z" fill="black"/>
<path fill-rule="evenodd" clip-rule="evenodd" d="M42.8433 50.286L57.29 25.1406C57.29 25.1406 57.2899 25.1405 57.2898 25.1405C54.318 23.4331 51.3008 21.9706 48.2978 20.7183L34.4938 44.7451C37.0882 46.7086 39.8713 48.5785 42.8431 50.2859C42.8431 50.2859 42.8432 50.286 42.8433 50.286Z" fill="black"/>
<path fill-rule="evenodd" clip-rule="evenodd" d="M28.2538 39.5466L40.6643 17.9453C37.1856 16.857 33.7987 16.0223 30.6032 15.3836L20.9733 32.1451C23.1346 34.584 25.5615 37.0895 28.2538 39.5466Z" fill="black"/>
</svg>
